<!DOCTYPE svg PUBLIC "-//W3C//DTD SVG 20010904//EN" "http://www.w3.org/TR/2001/REC-SVG-20010904/DTD/svg10.dtd">
<svg version="1.0" xmlns="http://www.w3.org/2000/svg" width="608px" height="644px" viewBox="0 0 6080 6440" preserveAspectRatio="xMidYMid meet">
<g id="layer101" fill="#434343" stroke="none">
 <path d="M2875 6429 c-147 -11 -251 -50 -429 -158 -186 -114 -740 -396 -1666 -848 -253 -124 -268 -133 -320 -190 -250 -277 -441 -985 -440 -1635 1 -367 63 -692 182 -949 l35 -75 7 -260 c16 -596 88 -1128 232 -1709 64 -257 130 -430 193 -507 43 -51 122 -88 188 -88 86 0 185 43 495 216 483 270 764 483 973 738 53 65 75 84 90 81 11 -2 99 -15 195 -30 338 -49 527 -49 864 1 94 14 178 27 188 30 11 3 42 -24 101 -93 193 -223 368 -367 693 -568 219 -136 540 -309 647 -350 161 -60 278 -11 361 153 97 192 219 693 301 1237 30 201 65 633 70 887 l6 257 38 83 c54 117 96 255 131 426 43 213 53 352 47 607 -14 564 -163 1150 -372 1464 -74 112 -116 143 -339 251 -819 397 -1438 711 -1680 853 -170 99 -269 144 -363 162 -86 17 -295 24 -428 14z"/>
 </g>
<g id="layer102" fill="#cfcfcf" stroke="none">
 <path d="M2853 6280 c-150 -16 -277 -78 -347 -169 -25 -33 -89 -141 -142 -242 -113 -216 -153 -277 -225 -344 -124 -117 -256 -158 -247 -77 2 22 14 33 64 57 85 41 126 75 185 153 48 63 215 379 206 388 -2 3 -60 -25 -128 -63 -68 -37 -441 -224 -829 -415 -388 -192 -725 -359 -750 -372 -181 -92 -367 -584 -445 -1176 -22 -168 -31 -513 -16 -665 24 -244 82 -474 166 -660 l55 -120 0 -242 c0 -417 51 -886 146 -1343 79 -381 151 -645 204 -750 64 -126 88 -126 343 2 216 109 431 236 652 385 209 141 383 305 570 535 l30 37 170 -29 c361 -64 557 -72 825 -35 120 17 340 52 376 61 18 5 39 -15 116 -108 105 -125 280 -298 373 -370 164 -125 495 -328 741 -455 205 -105 257 -126 295 -118 95 21 170 214 284 730 117 528 161 901 172 1435 l6 295 79 155 c85 167 119 277 153 491 23 145 30 443 16 625 -23 280 -91 620 -171 849 -67 192 -174 386 -243 440 -17 14 -153 84 -302 156 -345 167 -1234 612 -1344 673 -46 25 -86 45 -87 43 -2 -2 29 -68 69 -148 121 -240 183 -315 309 -378 61 -30 74 -41 76 -63 3 -22 -2 -30 -22 -39 -23 -11 -35 -7 -98 24 -83 40 -167 117 -227 206 -22 32 -73 125 -115 207 -124 247 -161 295 -277 358 -90 49 -200 76 -315 76 l-92 0 -7 -94 c-4 -52 -5 -99 -1 -104 3 -5 29 -12 57 -15 107 -13 232 -95 265 -173 8 -18 14 -58 14 -87 0 -139 -129 -205 -383 -194 -144 6 -213 24 -267 73 -79 72 -69 212 22 289 43 37 144 84 199 93 l44 8 3 98 c2 73 -1 102 -10 108 -15 9 -94 8 -195 -2z m-537 -2198 c22 -14 34 -50 25 -74 -12 -32 -133 -145 -209 -197 -173 -116 -445 -185 -647 -162 -63 7 -83 14 -97 31 -22 27 -23 50 -4 76 13 17 28 19 168 20 124 1 168 6 232 23 154 43 295 123 408 232 59 58 94 72 124 51z m1659 -63 c107 -110 259 -196 413 -235 78 -20 120 -24 236 -24 97 0 146 -4 154 -12 16 -16 15 -70 -2 -94 -13 -18 -27 -19 -183 -18 -138 1 -182 5 -245 22 -117 32 -223 80 -317 143 -95 63 -211 177 -211 206 0 37 29 63 68 63 32 0 45 -8 87 -51z"/>
 <path d="M5600 5248 c41 -45 50 -53 50 -45 0 2 -21 23 -47 47 l-48 45 45 -47z"/>
 <path d="M243 2510 c0 -36 2 -50 4 -32 2 17 2 47 0 65 -2 17 -4 3 -4 -33z"/>
 <path d="M5833 2480 c0 -36 2 -50 4 -32 2 17 2 47 0 65 -2 17 -4 3 -4 -33z"/>
 <path d="M5833 2325 c0 -27 2 -38 4 -22 2 15 2 37 0 50 -2 12 -4 0 -4 -28z"/>
 <path d="M243 2305 c0 -22 2 -30 4 -17 2 12 2 30 0 40 -3 9 -5 -1 -4 -23z"/>
 <path d="M3820 885 c19 -19 36 -35 39 -35 3 0 -10 16 -29 35 -19 19 -36 35 -39 35 -3 0 10 -16 29 -35z"/>
 <path d="M2230 865 c-24 -25 -42 -45 -39 -45 3 0 25 20 49 45 24 25 42 45 39 45 -3 0 -25 -20 -49 -45z"/>
 <path d="M2119 753 l-34 -38 38 34 c20 19 37 36 37 38 0 8 -8 0 -41 -34z"/>
 <path d="M3940 767 c0 -2 15 -16 33 -33 l32 -29 -29 33 c-28 30 -36 37 -36 29z"/>
 </g>
<g id="layer103" fill="#ffffff" stroke="none">
 <path d="M2790 6176 c-59 -13 -145 -55 -275 -133 l-80 -49 -75 -149 c-93 -185 -132 -244 -214 -323 -129 -125 -288 -161 -263 -61 5 19 21 31 62 48 114 47 202 144 289 320 21 40 33 72 28 70 -5 -2 -229 -115 -498 -250 -269 -135 -630 -314 -801 -397 -305 -149 -314 -154 -352 -205 -115 -154 -202 -391 -276 -747 -95 -463 -116 -834 -65 -1137 18 -104 96 -415 120 -479 6 -15 8 -29 5 -32 -7 -7 -88 170 -111 240 -9 32 -19 56 -22 54 -8 -9 52 -173 99 -270 l48 -99 1 -242 c0 -259 30 -659 70 -930 88 -600 242 -1176 331 -1238 38 -27 80 -20 185 32 109 53 419 224 529 291 155 94 378 256 476 344 86 77 221 224 317 345 l19 25 199 -32 c443 -71 575 -71 1003 -1 102 17 194 28 205 24 12 -3 44 -35 71 -72 72 -97 277 -305 370 -378 277 -214 936 -595 1031 -595 79 0 140 103 215 364 53 186 143 614 183 876 44 284 76 693 76 962 0 238 0 239 26 291 22 42 23 49 8 35 -14 -12 -9 6 18 61 81 169 136 431 145 686 16 484 -117 1168 -294 1506 -51 98 -116 179 -143 179 -10 0 -20 4 -22 9 -1 5 -142 76 -313 158 -170 82 -516 253 -767 380 -252 127 -458 227 -458 222 0 -5 15 -40 34 -77 72 -143 172 -248 282 -297 59 -26 71 -47 48 -83 -14 -21 -21 -23 -52 -18 -45 7 -119 45 -173 88 -67 53 -152 176 -232 335 l-76 149 -109 67 c-199 121 -273 147 -429 147 l-73 0 0 -54 0 -54 49 -7 c107 -15 229 -95 273 -179 26 -51 22 -143 -9 -184 -57 -77 -149 -107 -333 -107 -184 0 -276 30 -333 107 -27 36 -34 131 -15 178 35 83 124 147 242 177 l66 16 0 53 0 54 -102 -1 c-57 0 -128 -6 -158 -13z m-460 -2096 c37 -37 27 -80 -31 -139 -119 -121 -303 -229 -464 -271 -98 -26 -244 -38 -347 -30 -94 8 -118 25 -118 81 0 60 28 73 137 64 253 -20 504 75 690 262 60 59 97 69 133 33z m1665 -69 c123 -118 223 -174 390 -216 81 -21 121 -25 238 -25 159 0 177 -7 177 -67 0 -71 -65 -91 -265 -80 -247 14 -465 109 -642 282 -88 85 -97 112 -55 154 43 43 72 34 157 -48z"/>
 </g>

</svg>